<svg width="169" height="146" viewBox="0 0 169 146" fill="none" xmlns="http://www.w3.org/2000/svg">
<path d="M44.5982 41.5059H22.1426V119.695H44.5982V41.5059Z" fill="#005AEB"/>
<path d="M94.5143 41.5059H72.0586V119.695H94.5143V41.5059Z" fill="#005AEB"/>
<path d="M144.401 41.5059H121.945V119.695H144.401V41.5059Z" fill="#005AEB"/>
<path d="M7.98242 40.2025V36.2927C7.98242 33.2808 9.7753 30.5606 12.5402 29.3785L79.0181 0.94127C80.8223 0.168395 82.8571 0.134292 84.684 0.846549L154.09 27.863C156.975 28.9845 158.878 31.7691 158.878 34.872V40.2025C158.878 44.3548 155.516 47.7229 151.37 47.7229H15.4828C11.3449 47.7191 7.98242 44.3548 7.98242 40.2025Z" fill="#005AEB"/>
<path d="M155.909 130.491H10.9554C9.31384 130.491 7.98242 129.157 7.98242 127.513V119.075C7.98242 117.431 9.31384 116.098 10.9554 116.098H155.909C157.55 116.098 158.882 117.431 158.882 119.075V127.513C158.886 129.157 157.554 130.491 155.909 130.491Z" fill="#005AEB"/>
<path d="M165.136 145.588H2.93127C1.31244 145.588 0 144.274 0 142.652V129.729C0 128.108 1.31244 126.793 2.93127 126.793H165.136C166.755 126.793 168.067 128.108 168.067 129.729V142.652C168.067 144.274 166.755 145.588 165.136 145.588Z" fill="#005AEB"/>
<path d="M90.5995 20.2097C90.5995 25.3395 86.4504 29.4955 81.3291 29.4955C76.2079 29.4955 72.0586 25.3395 72.0586 20.2097C72.0586 15.0799 76.2079 10.9238 81.3291 10.9238C86.4466 10.9238 90.5995 15.0799 90.5995 20.2097Z" fill="white"/>
<path d="M160.806 126.559C160.806 127.105 126.262 127.544 83.6615 127.544C41.0461 127.544 6.50977 127.101 6.50977 126.559C6.50977 126.014 41.0461 125.574 83.6615 125.574C126.262 125.574 160.806 126.018 160.806 126.559Z" fill="#263238"/>
<path d="M153.444 116.087C153.444 116.632 121.972 117.072 83.1536 117.072C44.3243 117.072 12.8555 116.628 12.8555 116.087C12.8555 115.541 44.3206 115.102 83.1536 115.102C121.972 115.098 153.444 115.541 153.444 116.087Z" fill="#263238"/>
<path d="M148.999 47.7096C148.999 48.2552 119.516 48.6947 83.1529 48.6947C46.7783 48.6947 17.3027 48.2514 17.3027 47.7096C17.3027 47.1679 46.7821 46.7246 83.1529 46.7246C119.516 46.7246 148.999 47.1679 148.999 47.7096Z" fill="#263238"/>
</svg>
